<svg xmlns="http://www.w3.org/2000/svg" width="1240" height="720" viewBox="0 0 1240 720">
<rect x="0.0" y="0.0" width="1240.0" height="720.0" fill="#ffffff" stroke="none" />
<text x="620.0" y="34.0" font-family="Arial, Helvetica, sans-serif" font-size="22" font-weight="bold" text-anchor="middle">Stratified vs Grouped Frozen-Embedding Macro-F1</text>
<text x="620.0" y="58.0" font-family="Arial, Helvetica, sans-serif" font-size="13" font-weight="normal" text-anchor="middle">Higher is better; grouped metrics test board/material exclusion from the reference set.</text>
<line x1="100" y1="570.0" x2="1200" y2="570.0" stroke="#dddddd" />
<text x="88.0" y="575.0" font-family="Arial, Helvetica, sans-serif" font-size="12" font-weight="normal" text-anchor="end">0%</text>
<line x1="100" y1="472.0" x2="1200" y2="472.0" stroke="#dddddd" />
<text x="88.0" y="477.0" font-family="Arial, Helvetica, sans-serif" font-size="12" font-weight="normal" text-anchor="end">20%</text>
<line x1="100" y1="374.0" x2="1200" y2="374.0" stroke="#dddddd" />
<text x="88.0" y="379.0" font-family="Arial, Helvetica, sans-serif" font-size="12" font-weight="normal" text-anchor="end">40%</text>
<line x1="100" y1="276.0" x2="1200" y2="276.0" stroke="#dddddd" />
<text x="88.0" y="281.0" font-family="Arial, Helvetica, sans-serif" font-size="12" font-weight="normal" text-anchor="end">60%</text>
<line x1="100" y1="178.0" x2="1200" y2="178.0" stroke="#dddddd" />
<text x="88.0" y="183.0" font-family="Arial, Helvetica, sans-serif" font-size="12" font-weight="normal" text-anchor="end">80%</text>
<line x1="100" y1="80.0" x2="1200" y2="80.0" stroke="#dddddd" />
<text x="88.0" y="85.0" font-family="Arial, Helvetica, sans-serif" font-size="12" font-weight="normal" text-anchor="end">100%</text>
<line x1="100" y1="80" x2="100" y2="570" stroke="#333333" />
<line x1="100" y1="570" x2="1200" y2="570" stroke="#333333" />
<rect x="141.0" y="156.4" width="42.0" height="413.6" fill="#4C78A8" stroke="none" />
<text x="162.0" y="150.4" font-family="Arial, Helvetica, sans-serif" font-size="10" font-weight="normal" text-anchor="middle">84.4</text>
<rect x="189.0" y="413.2" width="42.0" height="156.8" fill="#59A14F" stroke="none" />
<text x="210.0" y="407.2" font-family="Arial, Helvetica, sans-serif" font-size="10" font-weight="normal" text-anchor="middle">32.0</text>
<rect x="237.0" y="445.4" width="42.0" height="124.6" fill="#F28E2B" stroke="none" />
<text x="258.0" y="439.4" font-family="Arial, Helvetica, sans-serif" font-size="10" font-weight="normal" text-anchor="middle">25.4</text>
<text x="210.0" y="598.0" font-family="Arial, Helvetica, sans-serif" font-size="13" font-weight="normal" text-anchor="middle">Random</text>
<rect x="361.0" y="143.0" width="42.0" height="427.0" fill="#4C78A8" stroke="none" />
<text x="382.0" y="137.0" font-family="Arial, Helvetica, sans-serif" font-size="10" font-weight="normal" text-anchor="middle">87.2</text>
<rect x="409.0" y="377.4" width="42.0" height="192.6" fill="#59A14F" stroke="none" />
<text x="430.0" y="371.4" font-family="Arial, Helvetica, sans-serif" font-size="10" font-weight="normal" text-anchor="middle">39.3</text>
<rect x="457.0" y="457.5" width="42.0" height="112.5" fill="#F28E2B" stroke="none" />
<text x="478.0" y="451.5" font-family="Arial, Helvetica, sans-serif" font-size="10" font-weight="normal" text-anchor="middle">23.0</text>
<text x="430.0" y="598.0" font-family="Arial, Helvetica, sans-serif" font-size="13" font-weight="normal" text-anchor="middle">ImageNet</text>
<rect x="581.0" y="104.2" width="42.0" height="465.8" fill="#4C78A8" stroke="none" />
<text x="602.0" y="98.2" font-family="Arial, Helvetica, sans-serif" font-size="10" font-weight="normal" text-anchor="middle">95.1</text>
<rect x="629.0" y="143.2" width="42.0" height="426.8" fill="#59A14F" stroke="none" />
<text x="650.0" y="137.2" font-family="Arial, Helvetica, sans-serif" font-size="10" font-weight="normal" text-anchor="middle">87.1</text>
<rect x="677.0" y="147.0" width="42.0" height="423.0" fill="#F28E2B" stroke="none" />
<text x="698.0" y="141.0" font-family="Arial, Helvetica, sans-serif" font-size="10" font-weight="normal" text-anchor="middle">86.3</text>
<text x="650.0" y="598.0" font-family="Arial, Helvetica, sans-serif" font-size="13" font-weight="normal" text-anchor="middle">v6.1</text>
<rect x="801.0" y="115.4" width="42.0" height="454.6" fill="#4C78A8" stroke="none" />
<text x="822.0" y="109.4" font-family="Arial, Helvetica, sans-serif" font-size="10" font-weight="normal" text-anchor="middle">92.8</text>
<rect x="849.0" y="111.5" width="42.0" height="458.5" fill="#59A14F" stroke="none" />
<text x="870.0" y="105.5" font-family="Arial, Helvetica, sans-serif" font-size="10" font-weight="normal" text-anchor="middle">93.6</text>
<rect x="897.0" y="111.9" width="42.0" height="458.1" fill="#F28E2B" stroke="none" />
<text x="918.0" y="105.9" font-family="Arial, Helvetica, sans-serif" font-size="10" font-weight="normal" text-anchor="middle">93.5</text>
<text x="870.0" y="598.0" font-family="Arial, Helvetica, sans-serif" font-size="13" font-weight="normal" text-anchor="middle">v6.2-A</text>
<rect x="1021.0" y="373.2" width="42.0" height="196.8" fill="#4C78A8" stroke="none" />
<text x="1042.0" y="367.2" font-family="Arial, Helvetica, sans-serif" font-size="10" font-weight="normal" text-anchor="middle">40.2</text>
<rect x="1069.0" y="440.6" width="42.0" height="129.4" fill="#59A14F" stroke="none" />
<text x="1090.0" y="434.6" font-family="Arial, Helvetica, sans-serif" font-size="10" font-weight="normal" text-anchor="middle">26.4</text>
<rect x="1117.0" y="450.1" width="42.0" height="119.9" fill="#F28E2B" stroke="none" />
<text x="1138.0" y="444.1" font-family="Arial, Helvetica, sans-serif" font-size="10" font-weight="normal" text-anchor="middle">24.5</text>
<text x="1090.0" y="598.0" font-family="Arial, Helvetica, sans-serif" font-size="13" font-weight="normal" text-anchor="middle">Hierarchical</text>
<rect x="110.0" y="650.0" width="18.0" height="18.0" fill="#4C78A8" stroke="none" />
<text x="136.0" y="664.0" font-family="Arial, Helvetica, sans-serif" font-size="13" font-weight="normal" text-anchor="start">Stratified kNN</text>
<rect x="330.0" y="650.0" width="18.0" height="18.0" fill="#59A14F" stroke="none" />
<text x="356.0" y="664.0" font-family="Arial, Helvetica, sans-serif" font-size="13" font-weight="normal" text-anchor="start">Board LOBO</text>
<rect x="550.0" y="650.0" width="18.0" height="18.0" fill="#F28E2B" stroke="none" />
<text x="576.0" y="664.0" font-family="Arial, Helvetica, sans-serif" font-size="13" font-weight="normal" text-anchor="start">Material LOMO</text>
<text x="36.0" y="325.0" font-family="Arial, Helvetica, sans-serif" font-size="13" font-weight="normal" text-anchor="middle">Macro-F1</text>
</svg>